{
  "asset": {
    "generator": "Khronos glTF Blender I/O v1.7.33",
    "version": "2.0"
  },
  "scene": 0,
  "scenes": [
    {
      "name": "Scene",
      "nodes": [0, 1, 3, 4, 5, 6, 7]
    }
  ],
  "nodes": [
    {
      "mesh": 0,
      "name": "Plane",
      "scale": [16.920127868652344, 9.616995811462402, 121.07015228271484],
      "translation": [0, 0, 0]
    },
    {
      "mesh": 1,
      "children": [],
      "name": "car",
      "translation": [0, 0, 0]
    },
    {
      "camera": 0,
      "name": "Camera",
      "rotation": [0, 0, 0, 0.7071067690849304]
    },
    {
      "children": [2],
      "rotation": [
        0.5244215726852417, -0.003775085788220167, 0.0023251117672771215,
        0.8514472246170044
      ],
      "translation": [-0.0293881893157959, 0.5, 5.942898273468018]
    },
    {
      "mesh": 2,
      "name": "sp_desna",
      "rotation": [0, 0, 0, -4.371138828673793e-8],
      "translation": [
        1.0870935916900635, -0.3643882274627686, -1.4866799783706665
      ]
    },
    {
      "mesh": 3,
      "name": "sp_leva",
      "translation": [
        -1.0978442430496216, -0.3643882274627686, -1.4866799783706665
      ]
    },
    {
      "mesh": 4,
      "name": "z_desna",
      "rotation": [0, 0, 0, -4.371138828673793e-8],
      "translation": [
        1.095557451248169, -0.3643882274627686, 1.1431367826461792
      ]
    },
    {
      "mesh": 5,
      "name": "z_leva",
      "translation": [
        -1.0875791311264038, -0.3643882274627686, 1.144977502822876
      ]
    }
  ],
  "cameras": [
    {
      "name": "Camera",
      "perspective": {
        "aspectRatio": 1.7777777777777777,
        "yfov": 1.6509917361266737,
        "zfar": 100,
        "znear": 0.10000000149011612
      },
      "type": "perspective"
    }
  ],
  "materials": [
    {
      "doubleSided": true,
      "name": "Material.004",
      "pbrMetallicRoughness": {
        "baseColorTexture": {
          "index": 0
        },
        "metallicFactor": 0,
        "roughnessFactor": 0.5
      }
    },
    {
      "doubleSided": true,
      "name": "Material",
      "pbrMetallicRoughness": {
        "baseColorTexture": {
          "index": 1
        },
        "metallicFactor": 0,
        "roughnessFactor": 0.4000000059604645
      }
    },
    {
      "doubleSided": true,
      "name": "Material.003",
      "pbrMetallicRoughness": {
        "baseColorTexture": {
          "index": 2
        },
        "metallicFactor": 0,
        "roughnessFactor": 0.5
      }
    },
    {
      "doubleSided": true,
      "name": "Material.002",
      "pbrMetallicRoughness": {
        "baseColorTexture": {
          "index": 3
        },
        "metallicFactor": 0,
        "roughnessFactor": 0.5
      }
    },
    {
      "doubleSided": true,
      "name": "Material.005",
      "pbrMetallicRoughness": {
        "baseColorTexture": {
          "index": 4
        },
        "metallicFactor": 0,
        "roughnessFactor": 0.5
      }
    },
    {
      "doubleSided": true,
      "name": "Material.001",
      "pbrMetallicRoughness": {
        "baseColorTexture": {
          "index": 5
        },
        "metallicFactor": 0,
        "roughnessFactor": 0.5
      }
    }
  ],
  "meshes": [
    {
      "name": "Plane",
      "primitives": [
        {
          "attributes": {
            "POSITION": 0,
            "NORMAL": 1,
            "TEXCOORD_0": 2
          },
          "indices": 3,
          "material": 0
        }
      ]
    },
    {
      "name": "car",
      "primitives": [
        {
          "attributes": {
            "POSITION": 4,
            "NORMAL": 5,
            "TEXCOORD_0": 6
          },
          "indices": 7,
          "material": 1
        }
      ]
    },
    {
      "name": "Cylinder.007",
      "primitives": [
        {
          "attributes": {
            "POSITION": 8,
            "NORMAL": 9,
            "TEXCOORD_0": 10
          },
          "indices": 11,
          "material": 2
        }
      ]
    },
    {
      "name": "Cylinder.006",
      "primitives": [
        {
          "attributes": {
            "POSITION": 12,
            "NORMAL": 13,
            "TEXCOORD_0": 14
          },
          "indices": 11,
          "material": 3
        }
      ]
    },
    {
      "name": "Cylinder.008",
      "primitives": [
        {
          "attributes": {
            "POSITION": 15,
            "NORMAL": 16,
            "TEXCOORD_0": 17
          },
          "indices": 11,
          "material": 4
        }
      ]
    },
    {
      "name": "Cylinder.002",
      "primitives": [
        {
          "attributes": {
            "POSITION": 18,
            "NORMAL": 19,
            "TEXCOORD_0": 20
          },
          "indices": 11,
          "material": 5
        }
      ]
    }
  ],
  "textures": [
    {
      "sampler": 0,
      "source": 0
    },
    {
      "sampler": 0,
      "source": 1
    },
    {
      "sampler": 0,
      "source": 2
    },
    {
      "sampler": 0,
      "source": 2
    },
    {
      "sampler": 0,
      "source": 2
    },
    {
      "sampler": 0,
      "source": 2
    }
  ],
  "images": [
    {
      "mimeType": "image/png",
      "name": "grass",
      "uri": "grass.png"
    },
    {
      "mimeType": "image/png",
      "name": "car2",
      "uri": "car2.png"
    },
    {
      "mimeType": "image/png",
      "name": "guma",
      "uri": "guma.png"
    }
  ],
  "accessors": [
    {
      "bufferView": 0,
      "componentType": 5126,
      "count": 4,
      "max": [1, 0, 1],
      "min": [-1, 0, -1],
      "type": "VEC3"
    },
    {
      "bufferView": 1,
      "componentType": 5126,
      "count": 4,
      "type": "VEC3"
    },
    {
      "bufferView": 2,
      "componentType": 5126,
      "count": 4,
      "type": "VEC2"
    },
    {
      "bufferView": 3,
      "componentType": 5123,
      "count": 6,
      "type": "SCALAR"
    },
    {
      "bufferView": 4,
      "componentType": 5126,
      "count": 6582,
      "max": [1.4098269939422607, 0.6861011981964111, 2.2762556076049805],
      "min": [-1.4098269939422607, -0.5308130383491516, -2.325462818145752],
      "type": "VEC3"
    },
    {
      "bufferView": 5,
      "componentType": 5126,
      "count": 6582,
      "type": "VEC3"
    },
    {
      "bufferView": 6,
      "componentType": 5126,
      "count": 6582,
      "type": "VEC2"
    },
    {
      "bufferView": 7,
      "componentType": 5123,
      "count": 11007,
      "type": "SCALAR"
    },
    {
      "bufferView": 8,
      "componentType": 5126,
      "count": 5600,
      "max": [0.24994498491287231, 0.33597493171691895, 0.3361856937408447],
      "min": [-0.24683278799057007, -0.3361351490020752, -0.3359241485595703],
      "type": "VEC3"
    },
    {
      "bufferView": 9,
      "componentType": 5126,
      "count": 5600,
      "type": "VEC3"
    },
    {
      "bufferView": 10,
      "componentType": 5126,
      "count": 5600,
      "type": "VEC2"
    },
    {
      "bufferView": 11,
      "componentType": 5123,
      "count": 8508,
      "type": "SCALAR"
    },
    {
      "bufferView": 12,
      "componentType": 5126,
      "count": 5600,
      "max": [0.24994498491287231, 0.33597493171691895, 0.3361856937408447],
      "min": [-0.24683278799057007, -0.3361351490020752, -0.3359241485595703],
      "type": "VEC3"
    },
    {
      "bufferView": 13,
      "componentType": 5126,
      "count": 5600,
      "type": "VEC3"
    },
    {
      "bufferView": 14,
      "componentType": 5126,
      "count": 5600,
      "type": "VEC2"
    },
    {
      "bufferView": 15,
      "componentType": 5126,
      "count": 5600,
      "max": [0.24994498491287231, 0.33597493171691895, 0.3361856937408447],
      "min": [-0.24683278799057007, -0.3361351490020752, -0.3359241485595703],
      "type": "VEC3"
    },
    {
      "bufferView": 16,
      "componentType": 5126,
      "count": 5600,
      "type": "VEC3"
    },
    {
      "bufferView": 17,
      "componentType": 5126,
      "count": 5600,
      "type": "VEC2"
    },
    {
      "bufferView": 18,
      "componentType": 5126,
      "count": 5600,
      "max": [0.24994498491287231, 0.33597493171691895, 0.3361856937408447],
      "min": [-0.24683278799057007, -0.3361351490020752, -0.3359241485595703],
      "type": "VEC3"
    },
    {
      "bufferView": 19,
      "componentType": 5126,
      "count": 5600,
      "type": "VEC3"
    },
    {
      "bufferView": 20,
      "componentType": 5126,
      "count": 5600,
      "type": "VEC2"
    }
  ],
  "bufferViews": [
    {
      "buffer": 0,
      "byteLength": 48,
      "byteOffset": 0
    },
    {
      "buffer": 0,
      "byteLength": 48,
      "byteOffset": 48
    },
    {
      "buffer": 0,
      "byteLength": 32,
      "byteOffset": 96
    },
    {
      "buffer": 0,
      "byteLength": 12,
      "byteOffset": 128
    },
    {
      "buffer": 0,
      "byteLength": 78984,
      "byteOffset": 140
    },
    {
      "buffer": 0,
      "byteLength": 78984,
      "byteOffset": 79124
    },
    {
      "buffer": 0,
      "byteLength": 52656,
      "byteOffset": 158108
    },
    {
      "buffer": 0,
      "byteLength": 22014,
      "byteOffset": 210764
    },
    {
      "buffer": 0,
      "byteLength": 67200,
      "byteOffset": 232780
    },
    {
      "buffer": 0,
      "byteLength": 67200,
      "byteOffset": 299980
    },
    {
      "buffer": 0,
      "byteLength": 44800,
      "byteOffset": 367180
    },
    {
      "buffer": 0,
      "byteLength": 17016,
      "byteOffset": 411980
    },
    {
      "buffer": 0,
      "byteLength": 67200,
      "byteOffset": 428996
    },
    {
      "buffer": 0,
      "byteLength": 67200,
      "byteOffset": 496196
    },
    {
      "buffer": 0,
      "byteLength": 44800,
      "byteOffset": 563396
    },
    {
      "buffer": 0,
      "byteLength": 67200,
      "byteOffset": 608196
    },
    {
      "buffer": 0,
      "byteLength": 67200,
      "byteOffset": 675396
    },
    {
      "buffer": 0,
      "byteLength": 44800,
      "byteOffset": 742596
    },
    {
      "buffer": 0,
      "byteLength": 67200,
      "byteOffset": 787396
    },
    {
      "buffer": 0,
      "byteLength": 67200,
      "byteOffset": 854596
    },
    {
      "buffer": 0,
      "byteLength": 44800,
      "byteOffset": 921796
    }
  ],
  "samplers": [
    {
      "magFilter": 9729,
      "minFilter": 9987
    }
  ],
  "buffers": [
    {
      "byteLength": 966596,
      "uri": "car.bin"
    }
  ]
}
